Coordinates
version=1
nRows=12
nColumns=24
inDegrees=yes

Units are S.I. units (second, meters, Newtons, ...)
Angles are in degrees.

endheader
time	pelvis_tilt	pelvis_list	pelvis_rotation	pelvis_tx	pelvis_ty	pelvis_tz	hip_flexion_r	hip_adduction_r	hip_rotation_r	knee_angle_r	ankle_angle_r	subtalar_angle_r	mtp_angle_r	hip_flexion_l	hip_adduction_l	hip_rotation_l	knee_angle_l	ankle_angle_l	subtalar_angle_l	mtp_angle_l	lumbar_extension	lumbar_bending	lumbar_rotation
      1.10400000	     -1.23012443	      1.88243007	     -5.41153059	      0.16147080	      1.07311453	      0.28084907	     18.71473390	     -5.53216735	     -4.60318844	    -72.05213445	     -1.50122089	    -10.21688887	      2.37195469	     11.47688420	      3.18662500	      0.58579335	    -16.79667923	     10.48597743	      1.42360096	     -1.20707167	     -9.44941208	     -2.83111919	      1.25598007
      1.10816667	     -1.18613913	      1.76368033	     -5.37704706	      0.16625651	      1.07416809	      0.28063320	     19.17446507	     -5.38351818	     -4.74193582	    -71.79045541	     -1.22346575	    -10.07495112	      2.31796521	     10.91079801	      3.08886760	      0.55122181	    -16.33252681	     10.55572945	      1.59451217	     -1.18780705	     -9.57583412	     -2.68532778	      1.04887489
      1.11233333	     -1.16313460	      1.64546075	     -5.33650254	      0.17102357	      1.07512841	      0.28041488	     19.64729594	     -5.23100426	     -4.88448950	    -71.47893601	     -0.93171523	     -9.89248602	      2.28216342	     10.37585877	      2.98838603	      0.51386474	    -15.88009934	     10.59934990	      1.75805314	     -1.16973723	     -9.68247642	     -2.53020455	      0.87800814
      1.11650000	     -1.13873114	      1.52406880	     -5.28705332	      0.17577549	      1.07605620	      0.28019618	     20.10337109	     -5.07231833	     -5.03169545	    -71.10951875	     -0.63062831	     -9.65958119	      2.26153989	      9.84277493	      2.88450412	      0.48891121	    -15.43139187	     10.62880721	      1.92294554	     -1.15254208	     -9.80248344	     -2.37039775	      0.71182917
      1.12066667	     -1.10519933	      1.41729026	     -5.22777401	      0.18054627	      1.07692699	      0.27996122	     20.53765964	     -4.93843170	     -5.19434274	    -70.69599421	     -0.31894959	     -9.36298589	      2.24516909	      9.30269935	      2.79768816	      0.45732241	    -14.98567710	     10.69223290	      2.10020829	     -1.12854892	     -9.91286037	     -2.23315907	      0.50441593
      1.12483333	     -1.05512478	      1.30718812	     -5.16237091	      0.18529480	      1.07779704	      0.27972162	     20.93851031	     -4.79990981	     -5.35845825	    -70.22339545	     -0.00310959	     -9.02926450	      2.24182152	      8.74746616	      2.70888284	      0.43766160	    -14.54122256	     10.73829218	      2.27269378	     -1.10510583	    -10.05490508	     -2.08743464	      0.31512771
      1.12900000	     -1.04651903	      1.19059510	     -5.08699715	      0.19004723	      1.07854029	      0.27948967	     21.36926082	     -4.64619325	     -5.52725751	    -69.69901358	      0.31089850	     -8.67017886	      2.25012148	      8.24616252	      2.60731032	      0.42955125	    -14.11491744	     10.77614239	      2.44376462	     -1.08553162	    -10.15634997	     -1.93290665	      0.14950280
      1.13316667	     -0.99326531	      1.10842763	     -5.00862209	      0.19480576	      1.07928282	      0.27924120	     21.74542588	     -4.54392192	     -5.70147742	    -69.13898882	      0.64914713	     -8.25295208	      2.26890184	      7.69691011	      2.54847457	      0.40910827	    -13.68168426	     10.84022964	      2.61918922	     -1.05789997	    -10.28941494	     -1.81111352	     -0.07466453
      1.13733333	     -0.95487363	      1.00864345	     -4.91927077	      0.19955855	      1.07995124	      0.27899121	     22.11830566	     -4.41788259	     -5.88391964	    -68.52213147	      0.97391023	     -7.83471239	      2.29644955	      7.17223880	      2.46726888	      0.40333403	    -13.26781363	     10.90305299	      2.79686607	     -1.02977351	    -10.41505352	     -1.66889182	     -0.27482749
      1.14150000	     -0.93702799	      0.91045314	     -4.82566566	      0.20432700	      1.08056038	      0.27875786	     22.49649484	     -4.28605795	     -6.06438635	    -67.84782300	      1.28504468	     -7.41881631	      2.32472259	      6.67281056	      2.38396107	      0.40234804	    -12.85902015	     10.92883703	      2.95947255	     -1.01090379	    -10.51693625	     -1.53024972	     -0.42868784
      1.14566667	     -0.88978166	      0.84792596	     -4.73424719	      0.20907905	      1.08109729	      0.27852048	     22.84502800	     -4.20186002	     -6.24021160	    -67.15744360	      1.62213485	     -6.95208435	      2.37043089	      6.14559272	      2.34259752	      0.40027764	    -12.45066395	     11.02721179	      3.13780012	     -0.97962918	    -10.64752629	     -1.43319395	     -0.66994330
      1.14983333	     -0.87563692	      0.76306822	     -4.63280666	      0.21384388	      1.08156075	      0.27829658	     23.20405030	     -4.08225613	     -6.42028441	    -66.39735425	      1.92613036	     -6.52682160	      2.40928463	      5.66382440	      2.27063750	      0.40561162	    -12.06580363	     11.06914465	      3.29901335	     -0.95856129	    -10.74350228	     -1.31257469	     -0.82883087
